<?xml version="1.0" encoding="utf-8"?>
<!-- Generator: Adobe Illustrator 27.5.0, SVG Export Plug-In . SVG Version: 6.00 Build 0)  -->
<svg version="1.1" id="Layer_1" xmlns="http://www.w3.org/2000/svg" xmlns:xlink="http://www.w3.org/1999/xlink" x="0px" y="0px"
	 viewBox="0 0 700 420" style="enable-background:new 0 0 700 420;" xml:space="preserve">
<style type="text/css">
	.st0{fill:url(#SVGID_1_);}
	.st1{fill:url(#SVGID_00000163785609159004052500000011328570000515046045_);}
	.st2{fill:#333333;}
</style>
<g id="Layer_2_00000080922014980974446000000010412028698725211016_">
	
		<linearGradient id="SVGID_1_" gradientUnits="userSpaceOnUse" x1="-1643.9271" y1="154.7024" x2="-1231.847" y2="154.7024" gradientTransform="matrix(0.5763 -0.7926 0.4125 0.2999 937.8741 -974.4998)">
		<stop  offset="0" style="stop-color:#69FF45"/>
		<stop  offset="1" style="stop-color:#4E018F"/>
	</linearGradient>
	<path class="st0" d="M58.7,372.3l-3.3-2.4c-4.7-3.4-5.8-10-2.3-14.8L277,47.1c3.4-4.7,10-5.8,14.8-2.3l3.3,2.4
		c4.7,3.4,5.8,10,2.3,14.8l-224,308C70,374.7,63.4,375.7,58.7,372.3z"/>
	
		<linearGradient id="SVGID_00000106860581896991392970000018214912057543285676_" gradientUnits="userSpaceOnUse" x1="-3989.4548" y1="153.0075" x2="-3577.3647" y2="153.0075" gradientTransform="matrix(0.1999 -0.275 0.4044 0.294 988.9208 -943.8853)">
		<stop  offset="0" style="stop-color:#69FF45"/>
		<stop  offset="1" style="stop-color:#4E018F"/>
	</linearGradient>
	<path style="fill:url(#SVGID_00000106860581896991392970000018214912057543285676_);" d="M259,193.8l-3.2-2.4
		c-4.6-3.3-5.6-9.8-2.3-14.4l69.7-95.9c3.3-4.6,9.8-5.6,14.4-2.3l3.2,2.4c4.6,3.3,5.6,9.8,2.3,14.4l-69.7,95.9
		C270,196.1,263.6,197.1,259,193.8L259,193.8z"/>
	<g>
		<path class="st2" d="M254.8,330.7c1.5,0,2.7,0.4,3.6,1.3s1.3,2.1,1.3,3.6v12.7c0,1.5-0.4,2.7-1.3,3.6s-2.1,1.3-3.6,1.3H154.5
			c-1.3,0-2.4-0.3-3.1-0.8c-0.8-0.5-1.1-1.3-1.1-2.3c0-0.9,0.4-1.9,1.1-3l66.4-91.4h-57.6c-1.5,0-2.7-0.4-3.6-1.3s-1.3-2.1-1.3-3.6
			v-12.7c0-1.5,0.4-2.7,1.3-3.6s2.1-1.3,3.6-1.3h97.9c1.3,0,2.3,0.3,3,0.8s1.1,1.3,1.1,2.1c0,1-0.4,2-1.1,3.1l-66.4,91.4
			L254.8,330.7L254.8,330.7L254.8,330.7z"/>
		<path class="st2" d="M306,282.4h52.6c1.5,0,2.7,0.4,3.6,1.3s1.3,2.1,1.3,3.6v12.8c0,1.5-0.4,2.7-1.3,3.6s-2.1,1.3-3.6,1.3H306
			v25.7h60.2c1.5,0,2.7,0.4,3.6,1.3s1.3,2.1,1.3,3.6v12.7c0,1.5-0.4,2.7-1.3,3.6s-2.1,1.3-3.6,1.3H285c-1.5,0-2.7-0.4-3.6-1.3
			s-1.3-2.1-1.3-3.6V238c0-1.5,0.4-2.7,1.3-3.6s2.1-1.3,3.6-1.3h81.2c1.5,0,2.7,0.4,3.6,1.3s1.3,2.1,1.3,3.6v12.7
			c0,1.5-0.4,2.7-1.3,3.6s-2.1,1.3-3.6,1.3H306V282.4z"/>
		<path class="st2" d="M419.8,352c-0.9,0.9-2.1,1.3-3.6,1.3h-16c-1.5,0-2.7-0.4-3.6-1.3s-1.3-2.1-1.3-3.6V238c0-1.5,0.4-2.7,1.3-3.6
			s2.1-1.3,3.6-1.3h48.5c8.5,0,16.1,1.8,22.7,5.3s11.7,8.4,15.3,14.8c3.6,6.4,5.4,13.6,5.4,21.7c0,8.7-2.2,16.4-6.6,23.2
			s-10.4,11.8-17.9,15l4.6,5.9c2.1,2.6,4.9,6.2,8.4,10.8c3.5,4.5,8,10.4,13.3,17.5c0.9,1,1.3,2,1.3,3.1c0,0.9-0.4,1.6-1.1,2.1
			s-1.7,0.8-3,0.8h-19.7c-2.5,0-4.5-0.9-6.1-2.8c-8.3-10.6-17.2-22.2-26.5-34.7H421v32.6C421.1,349.9,420.6,351.1,419.8,352
			L419.8,352z M448.7,293.2c4.8,0,9-1.7,12.4-5c3.5-3.3,5.2-7.8,5.2-13.4s-1.4-9.9-4.2-13.7c-2.8-3.7-7.3-5.6-13.4-5.6h-27.6v37.7
			H448.7z"/>
		<path class="st2" d="M541.5,347.2c-9.9-5.6-17.8-13.2-23.7-22.9c-5.8-9.7-8.7-20.1-8.7-31.2s2.9-21.4,8.6-31.1
			c5.8-9.7,13.6-17.3,23.6-22.9c9.9-5.6,20.7-8.4,32.4-8.4s22.6,2.8,32.5,8.3s17.8,13.1,23.8,22.8c5.8,9.8,8.7,20.2,8.7,31.2
			s-2.9,21.6-8.7,31.2s-13.7,17.3-23.7,22.9s-20.8,8.4-32.6,8.4C562.1,355.6,551.3,352.8,541.5,347.2L541.5,347.2z M554.4,259.7
			c-5.9,3.5-10.7,8.3-14.3,14.3c-3.5,6-5.3,12.4-5.3,19.1s1.8,13.2,5.3,19.2s8.2,10.8,14.1,14.4c5.9,3.6,12.4,5.4,19.4,5.4
			s13.4-1.8,19.4-5.4s10.8-8.4,14.3-14.5c3.4-5.8,5.1-12.2,5.1-19.1s-1.7-13.2-5.2-19.1s-8.1-10.7-14.1-14.3
			c-6.1-3.5-12.7-5.3-19.6-5.3S560.4,256.2,554.4,259.7L554.4,259.7z"/>
	</g>
	<g>
		<path class="st2" d="M384.9,206c0,1.2-0.4,2.2-1.1,2.9s-1.7,1.1-2.9,1.1h-13c-1.2,0-2.2-0.4-2.9-1.1c-0.7-0.7-1.1-1.7-1.1-2.9
			v-91.4c0-0.7,0.2-1.3,0.5-1.7c0.3-0.4,0.8-0.6,1.5-0.6c1,0,2,0.5,2.9,1.3l62.4,55.2v-52.4c0-1.2,0.4-2.2,1.1-2.9s1.7-1.1,2.9-1.1
			h13.1c1.2,0,2.2,0.4,2.9,1.1c0.7,0.7,1.1,1.7,1.1,2.9v90c0,1.1-0.2,1.9-0.7,2.6c-0.5,0.7-1,1-1.7,1c-0.8,0-1.5-0.3-2.1-0.9
			l-62.9-54.8L384.9,206L384.9,206L384.9,206z"/>
		<path class="st2" d="M495.5,152.4h42.8c1.2,0,2.2,0.4,2.9,1.1c0.7,0.7,1.1,1.7,1.1,2.9v10.4c0,1.2-0.4,2.2-1.1,2.9
			s-1.7,1.1-2.9,1.1h-42.8v20.8h48.9c1.2,0,2.2,0.4,2.9,1.1c0.7,0.7,1.1,1.7,1.1,2.9V206c0,1.2-0.4,2.2-1.1,2.9s-1.7,1.1-2.9,1.1
			h-66c-1.2,0-2.2-0.4-2.9-1.1c-0.7-0.7-1.1-1.7-1.1-2.9v-89.6c0-1.2,0.3-2.2,1.1-2.9c0.7-0.7,1.7-1.1,2.9-1.1h66
			c1.2,0,2.2,0.4,2.9,1.1s1.1,1.7,1.1,2.9v10.3c0,1.2-0.4,2.2-1.1,2.9s-1.7,1.1-2.9,1.1h-48.9L495.5,152.4L495.5,152.4L495.5,152.4z
			"/>
		<path class="st2" d="M634.6,129.6c-0.7,0.7-1.7,1.1-2.9,1.1h-24.3V206c0,1.2-0.4,2.2-1.1,2.9s-1.7,1.1-2.9,1.1h-13.2
			c-1.2,0-2.2-0.4-2.9-1.1c-0.7-0.7-1.1-1.7-1.1-2.9v-75.4h-24.5c-1.2,0-2.2-0.4-2.9-1.1c-0.7-0.7-1.1-1.7-1.1-2.9v-10.3
			c0-1.2,0.4-2.2,1.1-2.9c0.7-0.7,1.7-1.1,2.9-1.1h70c1.2,0,2.2,0.4,2.9,1.1s1.1,1.7,1.1,2.9v10.3
			C635.7,127.9,635.3,128.9,634.6,129.6z"/>
	</g>
</g>
</svg>
